<?xml version="1.0" encoding="UTF-8"?>
<svg id="Layer_2" data-name="Layer 2" xmlns="http://www.w3.org/2000/svg" viewBox="0 0 78.14 119.98">
  <defs>
    <style>
      .cls-1 {
        fill: #6d28d9;
        stroke-width: 0px;
      }
    </style>
  </defs>
  <g id="Layer_2-2" data-name="Layer 2">
    <g id="Layer_1-2" data-name="Layer 1-2">
      <path class="cls-1" d="M52.33,50.1V4.83h.02c.61,0,1.15-.27,1.55-.71s.64-1.04.64-1.71c0-1.34-.98-2.41-2.19-2.41h-27.48c-.61,0-1.15.26-1.55.7-.4.43-.64,1.03-.64,1.71,0,1.33.98,2.42,2.19,2.42h.28v45.49C10.44,55.49,0,68.61,0,83.97c0,19.89,17.49,36.01,39.06,36.01s39.08-16.12,39.08-36.01c0-15.59-10.77-28.86-25.81-33.87ZM39.07,114.76c-18.45,0-33.4-13.78-33.4-30.79,0-14.56,10.97-26.76,25.7-29.96V4.83h14.73v49.04c15.07,2.98,26.37,15.32,26.37,30.1,0,17.01-14.95,30.79-33.4,30.79Z"/>
      <path class="cls-1" d="M31.85,73.92l-15.74,8.09.11.06,9.16,4.71c-.54.03-1.08.08-1.64.15-1.91.22-3.68.59-5.3,1.04l-.95-.49-6.79-3.49v-3.95l21.15-10.84s0,4.72,0,4.72Z"/>
      <path class="cls-1" d="M67.44,80.04v3.95l-6.81,3.49-.9.46h0c-2.14-.48-4.55-.87-7.14-1.07l9.45-4.86-5.55-2.84-10.21-5.25v-4.72l21.17,10.84h-.01Z"/>
      <path class="cls-1" d="M44.14,64.22l-3.59,19.68-.65,3.58-.04.2c-.7.13-1.4.28-2.08.43h0c-.53-.16-1.13-.32-1.79-.47l.03-.16.23-1.18,4.02-22.08s3.88,0,3.88,0Z"/>
      <path class="cls-1" d="M68.55,91.74c-3.75,12.08-15.53,20.89-29.47,20.89s-25.68-8.77-29.47-20.8c-.01-.03-.02-.06-.03-.09,1.92-1.14,4.93-2.69,8.86-3.77l2.77,1.41,1.35.7c-.12,0-.24,0-.36.02h.39l9.26,4.73v-4.73l-.86-.43-1.53-.79-2.72-1.4-1.36-.7c4.3-.3,7.94.23,10.6.86l-.07.41-.25,1.39-.24,1.38-1.45,7.85h3.9l1.35-7.46.26-1.42.1-.55.28-1.56c1.73-.33,3.47-.59,5.1-.75,2.61-.25,5.18-.24,7.61-.06l-1.18.61-2.54,1.3-2.58,1.32v4.73l12.81-6.56.64-.33h0c5.29,1.2,8.84,2.98,8.78,3.8h.05Z"/>
    </g>
  </g>
</svg>